# xmcd CD database file
#
# Track frame offsets:
#	150
#	21307
#	53467
#	71430
#	101102
#	134620
#	158792
#	183837
#	212047
#	254512
#	293275
#	316317
#
# Disc length: 4678 seconds
#
# Revision: 0
# Processed by: cddbd v1.5.2PL0 Copyright (c) Steve Scherf et al.
# Submitted via: CDex 1.51
#
DISCID=a612440c
DTITLE=Eddie "Lockjaw" Davis feat. Karl Ratzer - Land Of Dreams
DYEAR=1900
DGENRE=Jazz
TTITLE0=Hey Jim
TTITLE1=Land Of Dreams
TTITLE2=When Sunny Gets Blue
TTITLE3=Avalon
TTITLE4=A Night In Tunisia
TTITLE5=Lock
TTITLE6=Lover Man
TTITLE7=Pennies From Heaven
TTITLE8=Night And Day
TTITLE9=Days Of Wine And Roses
TTITLE10=Misty
TTITLE11=Swingin' Until The Girls Come Home
EXTD=
EXTT0=
EXTT1=
EXTT2=
EXTT3=
EXTT4=
EXTT5=
EXTT6=
EXTT7=
EXTT8=
EXTT9=
EXTT10=
EXTT11=
PLAYORDER=
